<?xml version="1.0" standalone="no"?>
<!DOCTYPE svg PUBLIC "-//W3C//DTD SVG 20010904//EN"
 "http://www.w3.org/TR/2001/REC-SVG-20010904/DTD/svg10.dtd">
<svg version="1.0" xmlns="http://www.w3.org/2000/svg"
 width="1500.000000pt" height="1500.000000pt" viewBox="0 0 1500.000000 1500.000000"
 preserveAspectRatio="xMidYMid meet">

<g transform="translate(0.000000,1500.000000) scale(0.100000,-0.100000)"
fill="#000000" stroke="none">
<path d="M6720 12880 l0 -270 -235 0 -235 0 0 -200 0 -200 235 0 235 0 0 -347
0 -348 -2135 -1980 c-1175 -1089 -2151 -1993 -2170 -2010 l-34 -30 15 -125
c38 -328 146 -875 239 -1210 34 -123 95 -313 104 -322 3 -4 942 854 2086 1908
1144 1053 2084 1913 2091 1912 6 -2 1105 -1011 2442 -2243 l2432 -2240 0 -420
0 -420 56 -24 c31 -13 104 -56 162 -94 119 -78 299 -250 370 -353 l43 -61 94
-7 c335 -23 615 -140 873 -365 l82 -72 0 929 0 929 53 7 c28 3 113 6 187 7 74
1 160 4 191 8 l56 6 -3423 3135 -3423 3135 0 348 -1 347 235 0 235 0 0 200 0
200 -235 0 -235 0 0 270 0 270 -195 0 -195 0 0 -270z"/>
</g>
</svg>
